<svg width="24" height="24" viewBox="0 0 24 24" fill="none" xmlns="http://www.w3.org/2000/svg">
<path d="M5.00001 9.99998H7.00001C7.40751 10.0581 7.82296 10.0206 8.21345 9.8904C8.60395 9.7602 8.95878 9.54088 9.24984 9.24981C9.54091 8.95875 9.76023 8.60392 9.89043 8.21342C10.0206 7.82293 10.0581 7.40748 10 6.99998V4.99998C10.0581 4.59247 10.0206 4.17703 9.89043 3.78653C9.76023 3.39604 9.54091 3.04121 9.24984 2.75014C8.95878 2.45907 8.60395 2.23976 8.21345 2.10955C7.82296 1.97935 7.40751 1.94184 7.00001 1.99998H5.00001C4.5925 1.94184 4.17706 1.97935 3.78656 2.10955C3.39607 2.23976 3.04124 2.45907 2.75017 2.75014C2.45911 3.04121 2.23979 3.39604 2.10959 3.78653C1.97938 4.17703 1.94187 4.59247 2.00001 4.99998V6.99998C1.94187 7.40748 1.97938 7.82293 2.10959 8.21342C2.23979 8.60392 2.45911 8.95875 2.75017 9.24981C3.04124 9.54088 3.39607 9.7602 3.78656 9.8904C4.17706 10.0206 4.5925 10.0581 5.00001 9.99998V9.99998Z" stroke="white" stroke-width="1.5" stroke-linecap="round" stroke-linejoin="round"/>
<path d="M17 9.99998H19C19.4075 10.0581 19.823 10.0206 20.2135 9.8904C20.6039 9.7602 20.9588 9.54088 21.2498 9.24981C21.5409 8.95875 21.7602 8.60392 21.8904 8.21342C22.0206 7.82293 22.0581 7.40748 22 6.99998V4.99998C22.0581 4.59247 22.0206 4.17703 21.8904 3.78653C21.7602 3.39604 21.5409 3.04121 21.2498 2.75014C20.9588 2.45907 20.6039 2.23976 20.2135 2.10955C19.823 1.97935 19.4075 1.94184 19 1.99998H17C16.5925 1.94184 16.1771 1.97935 15.7866 2.10955C15.3961 2.23976 15.0412 2.45907 14.7502 2.75014C14.4591 3.04121 14.2398 3.39604 14.1096 3.78653C13.9794 4.17703 13.9419 4.59247 14 4.99998V6.99998C13.9419 7.40748 13.9794 7.82293 14.1096 8.21342C14.2398 8.60392 14.4591 8.95875 14.7502 9.24981C15.0412 9.54088 15.3961 9.7602 15.7866 9.8904C16.1771 10.0206 16.5925 10.0581 17 9.99998V9.99998Z" stroke="white" stroke-width="1.5" stroke-linecap="round" stroke-linejoin="round"/>
<path d="M17 22H19C19.4075 22.0581 19.823 22.0206 20.2135 21.8904C20.6039 21.7602 20.9588 21.5409 21.2498 21.2498C21.5409 20.9587 21.7602 20.6039 21.8904 20.2134C22.0206 19.8229 22.0581 19.4075 22 19V17C22.0581 16.5925 22.0206 16.177 21.8904 15.7865C21.7602 15.396 21.5409 15.0412 21.2498 14.7501C20.9588 14.4591 20.6039 14.2398 20.2135 14.1096C19.823 13.9794 19.4075 13.9418 19 14H17C16.5925 13.9418 16.1771 13.9794 15.7866 14.1096C15.3961 14.2398 15.0412 14.4591 14.7502 14.7501C14.4591 15.0412 14.2398 15.396 14.1096 15.7865C13.9794 16.177 13.9419 16.5925 14 17V19C13.9419 19.4075 13.9794 19.8229 14.1096 20.2134C14.2398 20.6039 14.4591 20.9587 14.7502 21.2498C15.0412 21.5409 15.3961 21.7602 15.7866 21.8904C16.1771 22.0206 16.5925 22.0581 17 22V22Z" stroke="white" stroke-width="1.5" stroke-linecap="round" stroke-linejoin="round"/>
<path d="M5.00001 22H7.00001C7.40751 22.0581 7.82296 22.0206 8.21345 21.8904C8.60395 21.7602 8.95878 21.5409 9.24984 21.2498C9.54091 20.9587 9.76023 20.6039 9.89043 20.2134C10.0206 19.8229 10.0581 19.4075 10 19V17C10.0581 16.5925 10.0206 16.177 9.89043 15.7865C9.76023 15.396 9.54091 15.0412 9.24984 14.7501C8.95878 14.4591 8.60395 14.2398 8.21345 14.1096C7.82296 13.9794 7.40751 13.9418 7.00001 14H5.00001C4.5925 13.9418 4.17706 13.9794 3.78656 14.1096C3.39607 14.2398 3.04124 14.4591 2.75017 14.7501C2.45911 15.0412 2.23979 15.396 2.10959 15.7865C1.97938 16.177 1.94187 16.5925 2.00001 17V19C1.94187 19.4075 1.97938 19.8229 2.10959 20.2134C2.23979 20.6039 2.45911 20.9587 2.75017 21.2498C3.04124 21.5409 3.39607 21.7602 3.78656 21.8904C4.17706 22.0206 4.5925 22.0581 5.00001 22V22Z" stroke="white" stroke-width="1.5" stroke-linecap="round" stroke-linejoin="round"/>
</svg>
