<svg width="24" height="24" viewBox="0 0 24 24" fill="none" xmlns="http://www.w3.org/2000/svg">
<path d="M9.15981 10.8701C9.05003 10.8601 8.93958 10.8601 8.82981 10.8701C7.66601 10.8269 6.56567 10.3286 5.76542 9.48251C4.96518 8.63641 4.52895 7.51004 4.55057 6.34564C4.57219 5.18124 5.04992 4.07184 5.88103 3.25603C6.71213 2.44021 7.83021 1.98315 8.99481 1.98315C10.1594 1.98315 11.2775 2.44021 12.1086 3.25603C12.9397 4.07184 13.4174 5.18124 13.439 6.34564C13.4607 7.51004 13.0244 8.63641 12.2242 9.48251C11.4239 10.3286 10.3236 10.8269 9.15981 10.8701Z" stroke="white" stroke-width="1.5" stroke-linecap="round" stroke-linejoin="round"/>
<path d="M16.4098 4C17.338 4 18.2283 4.36875 18.8847 5.02513C19.541 5.6815 19.9098 6.57174 19.9098 7.5C19.9104 8.40617 19.5596 9.27726 18.931 9.93002C18.3025 10.5828 17.4453 10.9663 16.5398 11C16.4534 10.99 16.3662 10.99 16.2798 11" stroke="white" stroke-width="1.5" stroke-linecap="round" stroke-linejoin="round"/>
<path d="M4.16021 14.561C1.74021 16.181 1.74021 18.821 4.16021 20.431C5.67348 21.3341 7.40293 21.811 9.16522 21.811C10.9275 21.811 12.657 21.3341 14.1702 20.431C16.5902 18.811 16.5902 16.171 14.1702 14.561C12.6553 13.6626 10.9265 13.1885 9.16522 13.1885C7.40394 13.1885 5.67513 13.6626 4.16021 14.561V14.561Z" stroke="white" stroke-width="1.5" stroke-linecap="round" stroke-linejoin="round"/>
<path d="M18.3398 20C19.05 19.8603 19.7198 19.563 20.2998 19.13C20.6585 18.901 20.9537 18.5854 21.1581 18.2123C21.3626 17.8391 21.4698 17.4205 21.4698 16.995C21.4698 16.5695 21.3626 16.1509 21.1581 15.7777C20.9537 15.4046 20.6585 15.089 20.2998 14.86C19.7255 14.4384 19.0674 14.1451 18.3698 14" stroke="white" stroke-width="1.5" stroke-linecap="round" stroke-linejoin="round"/>
</svg>
