<svg width="24" height="24" viewBox="0 0 24 24" fill="none" xmlns="http://www.w3.org/2000/svg">
<path d="M6 9.32988V14.6699C6 17.9899 8.35 19.3399 11.22 17.6899L12.5 16.9499C12.6526 16.8618 12.7792 16.7349 12.867 16.5821C12.9548 16.4294 13.0007 16.2561 13 16.0799V7.91988C13.0007 7.74367 12.9548 7.5704 12.867 7.41762C12.7792 7.26485 12.6526 7.13798 12.5 7.04988L11.22 6.30588C8.35 4.65988 6 6.00588 6 9.32988Z" fill="#0A75BF"/>
<path d="M14 8.78997V15.22C14.0006 15.3075 14.0241 15.3933 14.0682 15.4689C14.1123 15.5445 14.1754 15.6072 14.2513 15.6507C14.3273 15.6943 14.4133 15.7171 14.5008 15.717C14.5883 15.7168 14.6743 15.6937 14.75 15.65L15.85 15.01C18.72 13.36 18.72 10.64 15.85 8.98997L14.75 8.34997C14.6735 8.30578 14.5867 8.28266 14.4983 8.28296C14.4099 8.28326 14.3232 8.30698 14.247 8.3517C14.1708 8.39641 14.1078 8.46053 14.0644 8.53752C14.021 8.61451 13.9988 8.70162 14 8.78997Z" fill="#0A75BF"/>
</svg>
