<svg width="24" height="24" viewBox="0 0 24 24" fill="none" xmlns="http://www.w3.org/2000/svg">
<path d="M18 9.32988V14.6699C18 17.9899 15.65 19.3399 12.78 17.6899L11.5 16.9499C11.3474 16.8618 11.2208 16.7349 11.133 16.5821C11.0452 16.4294 10.9993 16.2561 11 16.0799V7.91988C10.9993 7.74367 11.0452 7.5704 11.133 7.41762C11.2208 7.26485 11.3474 7.13798 11.5 7.04988L12.78 6.30588C15.65 4.65988 18 6.00588 18 9.32988Z" fill="#0A75BF"/>
<path d="M9.99713 8.78997V15.22C9.9966 15.3075 9.97312 15.3933 9.92902 15.4689C9.88492 15.5445 9.82175 15.6072 9.74583 15.6507C9.66991 15.6943 9.58389 15.7171 9.49638 15.717C9.40886 15.7168 9.32292 15.6937 9.24713 15.65L8.14713 15.01C5.27713 13.36 5.27713 10.64 8.14713 8.98997L9.24713 8.34997C9.32365 8.30578 9.41052 8.28266 9.49889 8.28296C9.58726 8.28326 9.67397 8.30698 9.75019 8.3517C9.8264 8.39641 9.88941 8.46053 9.93279 8.53752C9.97617 8.61451 9.99837 8.70162 9.99713 8.78997Z" fill="#0A75BF"/>
</svg>
