<svg width="19" height="19" viewBox="0 0 19 19" fill="none" xmlns="http://www.w3.org/2000/svg">
<path d="M7.125 6.63501H10.834C11.2249 6.6475 11.5963 6.80842 11.8728 7.08505C12.1493 7.36167 12.31 7.73322 12.3223 8.12413C12.3223 8.51894 12.1655 8.89758 11.8864 9.17683C11.6073 9.45607 11.2288 9.61305 10.834 9.61326H7.125V6.63501Z" stroke="#8C8888" stroke-width="1.5" stroke-linecap="round" stroke-linejoin="round"/>
<path d="M7.125 9.60369H11.3636C11.786 9.57739 12.2016 9.71918 12.5199 9.99814C12.8382 10.2771 13.0332 10.6706 13.0625 11.0928C13.0332 11.515 12.8382 11.9085 12.5199 12.1875C12.2016 12.4664 11.786 12.6082 11.3636 12.5819H7.125V9.60369Z" stroke="#8C8888" stroke-width="1.5" stroke-linecap="round" stroke-linejoin="round"/>
<path d="M9.7193 12.5725V14.0616" stroke="#8C8888" stroke-width="1.5" stroke-linecap="round" stroke-linejoin="round"/>
<path d="M7.8652 12.5725V14.0616" stroke="#8C8888" stroke-width="1.5" stroke-linecap="round" stroke-linejoin="round"/>
<path d="M9.7193 5.14575V6.63488" stroke="#8C8888" stroke-width="1.5" stroke-linecap="round" stroke-linejoin="round"/>
<path d="M7.8652 5.14575V6.63488" stroke="#8C8888" stroke-width="1.5" stroke-linecap="round" stroke-linejoin="round"/>
<path d="M8.53179 6.63501H5.9375" stroke="#8C8888" stroke-width="1.5" stroke-linecap="round" stroke-linejoin="round"/>
<path d="M8.53179 12.5725H5.9375" stroke="#8C8888" stroke-width="1.5" stroke-linecap="round" stroke-linejoin="round"/>
</svg>
