<svg width="9" height="17" viewBox="0 0 9 17" fill="none" xmlns="http://www.w3.org/2000/svg">
<path d="M8.486 11.562C8.486 12.138 8.342 12.69 8.054 13.218C7.766 13.734 7.34 14.166 6.776 14.514C6.224 14.862 5.558 15.06 4.778 15.108V16.566H3.806V15.108C2.714 15.012 1.826 14.664 1.142 14.064C0.458 13.452 0.11 12.678 0.0980001 11.742H1.844C1.892 12.246 2.078 12.684 2.402 13.056C2.738 13.428 3.206 13.662 3.806 13.758V9.258C3.002 9.054 2.354 8.844 1.862 8.628C1.37 8.412 0.95 8.076 0.602 7.62C0.254 7.164 0.08 6.552 0.08 5.784C0.08 4.812 0.416 4.008 1.088 3.372C1.772 2.736 2.678 2.382 3.806 2.31V0.815999H4.778V2.31C5.798 2.394 6.62 2.724 7.244 3.3C7.868 3.864 8.228 4.602 8.324 5.514H6.578C6.518 5.094 6.332 4.716 6.02 4.38C5.708 4.032 5.294 3.804 4.778 3.696V8.088C5.57 8.292 6.212 8.502 6.704 8.718C7.208 8.922 7.628 9.252 7.964 9.708C8.312 10.164 8.486 10.782 8.486 11.562ZM1.754 5.694C1.754 6.282 1.928 6.732 2.276 7.044C2.624 7.356 3.134 7.614 3.806 7.818V3.66C3.182 3.72 2.684 3.924 2.312 4.272C1.94 4.608 1.754 5.082 1.754 5.694ZM4.778 13.776C5.426 13.704 5.93 13.47 6.29 13.074C6.662 12.678 6.848 12.204 6.848 11.652C6.848 11.064 6.668 10.614 6.308 10.302C5.948 9.978 5.438 9.72 4.778 9.528V13.776Z" fill="#2B2828"/>
</svg>
