<svg width="24" height="24" viewBox="0 0 24 24" fill="none" xmlns="http://www.w3.org/2000/svg">
<path d="M6 10V8C6 4.69 7 2 12 2C17 2 18 4.69 18 8V10" stroke="#8C8888" stroke-width="1.5" stroke-linecap="round" stroke-linejoin="round"/>
<path d="M14.5 16C14.5 16.4945 14.3534 16.9778 14.0787 17.3889C13.804 17.8 13.4135 18.1205 12.9567 18.3097C12.4999 18.4989 11.9972 18.5484 11.5123 18.452C11.0273 18.3555 10.5819 18.1174 10.2322 17.7678C9.8826 17.4181 9.6445 16.9727 9.54804 16.4877C9.45157 16.0028 9.50108 15.5001 9.6903 15.0433C9.87952 14.5865 10.2 14.196 10.6111 13.9213C11.0222 13.6466 11.5055 13.5 12 13.5C12.663 13.5 13.2989 13.7634 13.7678 14.2322C14.2366 14.7011 14.5 15.337 14.5 16Z" stroke="#8C8888" stroke-width="1.5" stroke-linecap="round" stroke-linejoin="round"/>
<path d="M17 22H7C3 22 2 21 2 17V15C2 11 3 10 7 10H17C21 10 22 11 22 15V17C22 21 21 22 17 22Z" stroke="#8C8888" stroke-width="1.5" stroke-linecap="round" stroke-linejoin="round"/>
</svg>
