<svg width="196" height="72" viewBox="0 0 196 72" fill="none" xmlns="http://www.w3.org/2000/svg">
<path fill-rule="evenodd" clip-rule="evenodd" d="M9.92218 10.3231V49.3784C9.92218 54.7018 4.06685 57.16 0 60.1755V21.0021C0 15.8063 5.93513 13.2306 9.92218 10.3228V10.3231Z" fill="#0862A0"/>
<path fill-rule="evenodd" clip-rule="evenodd" d="M42.3137 10.3231V49.3784C42.3137 54.7018 36.4583 57.16 32.3915 60.1755V21.0021C32.3915 15.8063 38.3266 13.2306 42.3137 10.3228V10.3231Z" fill="#0862A0"/>
<path fill-rule="evenodd" clip-rule="evenodd" d="M25.7963 0.000387135L25.7218 26.3711C25.7218 30.0707 20.6691 31.5737 15.7703 35.3658L15.7962 9.27298C15.7962 5.6621 22.0437 2.74101 25.7963 0V0.000387135Z" fill="#0862A0"/>
<path fill-rule="evenodd" clip-rule="evenodd" d="M25.7963 36.5753L25.7218 62.946C25.7218 66.6456 20.6691 68.1487 15.7703 71.9408L15.7962 45.8479C15.7962 42.2371 22.0437 39.316 25.7963 36.575V36.5753Z" fill="#0862A0"/>
<path d="M58.167 19.3506H67.3955V13.667C67.3955 12.6514 67.332 11.9824 67.2051 11.6602C67.1074 11.416 66.9023 11.2061 66.5898 11.0303C66.1699 10.7959 65.7256 10.6787 65.2568 10.6787H64.5537V10.1367H73.0498V10.6787H72.3467C71.8779 10.6787 71.4336 10.791 71.0137 11.0156C70.7012 11.1719 70.4863 11.4111 70.3691 11.7334C70.2617 12.0459 70.208 12.6904 70.208 13.667V26.4844C70.208 27.4902 70.2715 28.1543 70.3984 28.4766C70.4961 28.7207 70.6963 28.9307 70.999 29.1064C71.4287 29.3408 71.8779 29.458 72.3467 29.458H73.0498V30H64.5537V29.458H65.2568C66.0674 29.458 66.6582 29.2188 67.0293 28.7402C67.2734 28.4277 67.3955 27.6758 67.3955 26.4844V20.4346H58.167V26.4844C58.167 27.4902 58.2305 28.1543 58.3574 28.4766C58.4551 28.7207 58.6602 28.9307 58.9727 29.1064C59.3926 29.3408 59.8369 29.458 60.3057 29.458H61.0234V30H52.5127V29.458H53.2158C54.0361 29.458 54.6318 29.2188 55.0029 28.7402C55.2373 28.4277 55.3545 27.6758 55.3545 26.4844V13.667C55.3545 12.6514 55.291 11.9824 55.1641 11.6602C55.0664 11.416 54.8662 11.2061 54.5635 11.0303C54.1338 10.7959 53.6846 10.6787 53.2158 10.6787H52.5127V10.1367H61.0234V10.6787H60.3057C59.8369 10.6787 59.3926 10.791 58.9727 11.0156C58.6699 11.1719 58.46 11.4111 58.3428 11.7334C58.2256 12.0459 58.167 12.6904 58.167 13.667V19.3506ZM82.9375 29.458V30H74.4268V29.458H75.1299C75.9502 29.458 76.5459 29.2188 76.917 28.7402C77.1514 28.4277 77.2686 27.6758 77.2686 26.4844V13.6523C77.2686 12.6465 77.2051 11.9824 77.0781 11.6602C76.9805 11.416 76.7803 11.2061 76.4775 11.0303C76.0479 10.7959 75.5986 10.6787 75.1299 10.6787H74.4268V10.1367H82.9375V10.6787H82.2197C81.4092 10.6787 80.8184 10.918 80.4473 11.3965C80.2031 11.709 80.0811 12.4609 80.0811 13.6523V26.4844C80.0811 27.4902 80.1445 28.1543 80.2715 28.4766C80.3691 28.7207 80.5742 28.9307 80.8867 29.1064C81.3066 29.3408 81.751 29.458 82.2197 29.458H82.9375ZM101.028 10.1367L101.248 14.7949H100.691C100.584 13.9746 100.438 13.3887 100.252 13.0371C99.9492 12.4707 99.5439 12.0557 99.0361 11.792C98.5381 11.5186 97.8789 11.3818 97.0586 11.3818H94.2607V26.5576C94.2607 27.7783 94.3926 28.54 94.6562 28.8428C95.0273 29.2529 95.5986 29.458 96.3701 29.458H97.0586V30H88.6357V29.458H89.3389C90.1787 29.458 90.7744 29.2041 91.126 28.6963C91.3408 28.3838 91.4482 27.6709 91.4482 26.5576V11.3818H89.0605C88.1328 11.3818 87.4736 11.4502 87.083 11.5869C86.5752 11.7725 86.1406 12.1289 85.7793 12.6562C85.418 13.1836 85.2031 13.8965 85.1348 14.7949H84.5781L84.8125 10.1367H101.028ZM108.279 11.2207V19.0723H112.645C113.777 19.0723 114.534 18.9014 114.915 18.5596C115.423 18.1104 115.706 17.3193 115.765 16.1865H116.307V23.1006H115.765C115.628 22.1338 115.491 21.5137 115.354 21.2402C115.179 20.8984 114.891 20.6299 114.49 20.4346C114.09 20.2393 113.475 20.1416 112.645 20.1416H108.279V26.6895C108.279 27.5684 108.318 28.1055 108.396 28.3008C108.475 28.4863 108.611 28.6377 108.807 28.7549C109.002 28.8623 109.373 28.916 109.92 28.916H113.289C114.412 28.916 115.228 28.8379 115.735 28.6816C116.243 28.5254 116.731 28.2178 117.2 27.7588C117.806 27.1533 118.426 26.2402 119.061 25.0195H119.646L117.933 30H102.625V29.458H103.328C103.797 29.458 104.241 29.3457 104.661 29.1211C104.974 28.9648 105.184 28.7305 105.291 28.418C105.408 28.1055 105.467 27.4658 105.467 26.499V13.5938C105.467 12.334 105.34 11.5576 105.086 11.2646C104.734 10.874 104.148 10.6787 103.328 10.6787H102.625V10.1367H117.933L118.152 14.4873H117.581C117.376 13.4424 117.146 12.7246 116.893 12.334C116.648 11.9434 116.282 11.6455 115.794 11.4404C115.403 11.2939 114.715 11.2207 113.729 11.2207H108.279ZM141.648 10.1367V10.6787C140.945 10.8057 140.413 11.0303 140.052 11.3525C139.534 11.8311 139.075 12.5635 138.675 13.5498L131.746 30.4541H131.204L123.763 13.3301C123.382 12.4512 123.113 11.9141 122.957 11.7188C122.713 11.416 122.41 11.1816 122.049 11.0156C121.697 10.8398 121.219 10.7275 120.613 10.6787V10.1367H128.729V10.6787C127.811 10.7666 127.215 10.9229 126.941 11.1475C126.668 11.3721 126.531 11.6602 126.531 12.0117C126.531 12.5 126.756 13.2617 127.205 14.2969L132.259 25.9424L136.946 14.4434C137.405 13.3105 137.635 12.5244 137.635 12.085C137.635 11.8018 137.493 11.5332 137.21 11.2793C136.927 11.0156 136.448 10.8301 135.774 10.7227C135.726 10.7129 135.643 10.6982 135.525 10.6787V10.1367H141.648ZM148.299 11.2207V19.0723H152.664C153.797 19.0723 154.554 18.9014 154.935 18.5596C155.442 18.1104 155.726 17.3193 155.784 16.1865H156.326V23.1006H155.784C155.647 22.1338 155.511 21.5137 155.374 21.2402C155.198 20.8984 154.91 20.6299 154.51 20.4346C154.109 20.2393 153.494 20.1416 152.664 20.1416H148.299V26.6895C148.299 27.5684 148.338 28.1055 148.416 28.3008C148.494 28.4863 148.631 28.6377 148.826 28.7549C149.021 28.8623 149.393 28.916 149.939 28.916H153.309C154.432 28.916 155.247 28.8379 155.755 28.6816C156.263 28.5254 156.751 28.2178 157.22 27.7588C157.825 27.1533 158.445 26.2402 159.08 25.0195H159.666L157.952 30H142.645V29.458H143.348C143.816 29.458 144.261 29.3457 144.681 29.1211C144.993 28.9648 145.203 28.7305 145.311 28.418C145.428 28.1055 145.486 27.4658 145.486 26.499V13.5938C145.486 12.334 145.359 11.5576 145.105 11.2646C144.754 10.874 144.168 10.6787 143.348 10.6787H142.645V10.1367H157.952L158.172 14.4873H157.601C157.396 13.4424 157.166 12.7246 156.912 12.334C156.668 11.9434 156.302 11.6455 155.813 11.4404C155.423 11.2939 154.734 11.2207 153.748 11.2207H148.299ZM174.124 9.68262V16.5527H173.582C173.406 15.2344 173.089 14.1846 172.63 13.4033C172.181 12.6221 171.536 12.002 170.696 11.543C169.856 11.084 168.987 10.8545 168.089 10.8545C167.073 10.8545 166.233 11.167 165.569 11.792C164.905 12.4072 164.573 13.1104 164.573 13.9014C164.573 14.5068 164.783 15.0586 165.203 15.5566C165.809 16.2891 167.249 17.2656 169.524 18.4863C171.38 19.4824 172.645 20.249 173.318 20.7861C174.002 21.3135 174.524 21.9385 174.886 22.6611C175.257 23.3838 175.442 24.1406 175.442 24.9316C175.442 26.4355 174.856 27.7344 173.685 28.8281C172.522 29.9121 171.023 30.4541 169.188 30.4541C168.611 30.4541 168.069 30.4102 167.562 30.3223C167.259 30.2734 166.629 30.0977 165.672 29.7949C164.725 29.4824 164.124 29.3262 163.87 29.3262C163.626 29.3262 163.431 29.3994 163.284 29.5459C163.147 29.6924 163.045 29.9951 162.977 30.4541H162.435V23.6426H162.977C163.23 25.0684 163.572 26.1377 164.002 26.8506C164.432 27.5537 165.086 28.1396 165.965 28.6084C166.854 29.0771 167.825 29.3115 168.88 29.3115C170.101 29.3115 171.062 28.9893 171.766 28.3447C172.479 27.7002 172.835 26.9385 172.835 26.0596C172.835 25.5713 172.698 25.0781 172.425 24.5801C172.161 24.082 171.746 23.6182 171.18 23.1885C170.799 22.8955 169.759 22.2754 168.06 21.3281C166.36 20.3711 165.149 19.6094 164.427 19.043C163.714 18.4766 163.172 17.8516 162.801 17.168C162.43 16.4844 162.244 15.7324 162.244 14.9121C162.244 13.4863 162.791 12.2607 163.885 11.2354C164.979 10.2002 166.37 9.68262 168.06 9.68262C169.114 9.68262 170.232 9.94141 171.414 10.459C171.961 10.7031 172.347 10.8252 172.571 10.8252C172.825 10.8252 173.03 10.752 173.187 10.6055C173.353 10.4492 173.484 10.1416 173.582 9.68262H174.124ZM194.427 10.1367L194.646 14.7949H194.09C193.982 13.9746 193.836 13.3887 193.65 13.0371C193.348 12.4707 192.942 12.0557 192.435 11.792C191.937 11.5186 191.277 11.3818 190.457 11.3818H187.659V26.5576C187.659 27.7783 187.791 28.54 188.055 28.8428C188.426 29.2529 188.997 29.458 189.769 29.458H190.457V30H182.034V29.458H182.737C183.577 29.458 184.173 29.2041 184.524 28.6963C184.739 28.3838 184.847 27.6709 184.847 26.5576V11.3818H182.459C181.531 11.3818 180.872 11.4502 180.481 11.5869C179.974 11.7725 179.539 12.1289 179.178 12.6562C178.816 13.1836 178.602 13.8965 178.533 14.7949H177.977L178.211 10.1367H194.427Z" fill="#0862A0"/>
<path d="M55.418 43.4512V47.4258H60.4473V49.0859H55.418V56H53.4648V41.6934H62.3027V43.4512H55.418ZM75.7402 41.5859C76.0592 41.5859 76.3294 41.6999 76.5508 41.9277C76.7786 42.1491 76.8926 42.416 76.8926 42.7285C76.8926 43.0475 76.7786 43.321 76.5508 43.5488C76.3294 43.7702 76.0592 43.8809 75.7402 43.8809C75.4277 43.8809 75.1576 43.7702 74.9297 43.5488C74.7083 43.321 74.5977 43.0475 74.5977 42.7285C74.5977 42.4095 74.7083 42.1393 74.9297 41.918C75.151 41.6966 75.4212 41.5859 75.7402 41.5859ZM74.7246 56V47.1035H73.2891V45.541H76.5801V56H74.7246ZM95.9648 56V49.916C95.9648 48.8027 95.7956 48.0247 95.457 47.582C95.125 47.1328 94.5651 46.9082 93.7773 46.9082C93.3542 46.9082 92.9115 47.0352 92.4492 47.2891C91.987 47.543 91.6322 47.8555 91.3848 48.2266V56H89.5293V45.541H90.7988L91.3848 46.8887C91.9967 45.86 92.9961 45.3457 94.3828 45.3457C96.6745 45.3457 97.8203 46.7389 97.8203 49.5254V56H95.9648ZM116.375 54.7988C115.633 55.7298 114.497 56.1953 112.967 56.1953C112.146 56.1953 111.434 55.8991 110.828 55.3066C110.229 54.7077 109.93 53.9655 109.93 53.0801C109.93 52.0189 110.392 51.1237 111.316 50.3945C112.247 49.6589 113.432 49.291 114.871 49.291C115.262 49.291 115.704 49.3757 116.199 49.5449C116.199 47.8522 115.444 47.0059 113.934 47.0059C112.775 47.0059 111.883 47.3184 111.258 47.9434L110.477 46.3906C110.828 46.1042 111.313 45.86 111.932 45.6582C112.557 45.4499 113.152 45.3457 113.719 45.3457C115.236 45.3457 116.336 45.6908 117.02 46.3809C117.71 47.071 118.055 48.168 118.055 49.6719V53.4219C118.055 54.3398 118.328 54.9518 118.875 55.2578V56.1855C118.12 56.1855 117.553 56.0781 117.176 55.8633C116.805 55.6484 116.538 55.2936 116.375 54.7988ZM116.199 50.8633C115.613 50.7331 115.203 50.668 114.969 50.668C114.031 50.668 113.266 50.9089 112.674 51.3906C112.081 51.8724 111.785 52.4421 111.785 53.0996C111.785 54.1868 112.426 54.7305 113.709 54.7305C114.646 54.7305 115.477 54.2845 116.199 53.3926V50.8633ZM137.41 56V49.916C137.41 48.8027 137.241 48.0247 136.902 47.582C136.57 47.1328 136.01 46.9082 135.223 46.9082C134.799 46.9082 134.357 47.0352 133.895 47.2891C133.432 47.543 133.077 47.8555 132.83 48.2266V56H130.975V45.541H132.244L132.83 46.8887C133.442 45.86 134.441 45.3457 135.828 45.3457C138.12 45.3457 139.266 46.7389 139.266 49.5254V56H137.41ZM159.803 46.3906L158.885 47.6992C158.696 47.5104 158.361 47.3314 157.879 47.1621C157.404 46.9928 156.935 46.9082 156.473 46.9082C155.464 46.9082 154.663 47.263 154.07 47.9727C153.478 48.6758 153.182 49.6426 153.182 50.873C153.182 52.097 153.484 53.0312 154.09 53.6758C154.695 54.3138 155.535 54.6328 156.609 54.6328C157.443 54.6328 158.283 54.3105 159.129 53.666L159.861 55.2285C158.865 55.873 157.632 56.1953 156.16 56.1953C154.734 56.1953 153.556 55.7168 152.625 54.7598C151.694 53.8027 151.229 52.5072 151.229 50.873C151.229 49.2064 151.71 47.8685 152.674 46.8594C153.644 45.8503 154.969 45.3457 156.648 45.3457C157.189 45.3457 157.775 45.4596 158.406 45.6875C159.038 45.9154 159.503 46.1497 159.803 46.3906ZM180.623 50.9512H173.084C173.084 52.1751 173.419 53.1159 174.09 53.7734C174.682 54.3464 175.444 54.6328 176.375 54.6328C177.436 54.6328 178.322 54.3236 179.031 53.7051L179.812 55.043C179.526 55.3294 179.087 55.5768 178.494 55.7852C177.752 56.0586 176.925 56.1953 176.014 56.1953C174.699 56.1953 173.582 55.7493 172.664 54.8574C171.642 53.8743 171.131 52.5527 171.131 50.8926C171.131 49.1673 171.655 47.7839 172.703 46.7422C173.641 45.8112 174.751 45.3457 176.033 45.3457C177.524 45.3457 178.693 45.7656 179.539 46.6055C180.359 47.4128 180.77 48.4837 180.77 49.8184C180.77 50.2285 180.721 50.6061 180.623 50.9512ZM176.121 46.9082C175.294 46.9082 174.601 47.1751 174.041 47.709C173.507 48.2168 173.204 48.8483 173.133 49.6035H178.924C178.924 48.8548 178.689 48.2298 178.221 47.7285C177.706 47.1816 177.007 46.9082 176.121 46.9082Z" fill="#575353"/>
</svg>
