<svg width="18" height="10" viewBox="0 0 18 10" fill="none" xmlns="http://www.w3.org/2000/svg">
<path d="M17.34 3.15435L14.4375 0.221849C14.3678 0.151552 14.2848 0.0957565 14.1934 0.05768C14.102 0.0196035 14.004 0 13.905 0C13.806 0 13.708 0.0196035 13.6166 0.05768C13.5252 0.0957565 13.4422 0.151552 13.3725 0.221849C13.2328 0.362371 13.1544 0.552459 13.1544 0.750599C13.1544 0.948738 13.2328 1.13883 13.3725 1.27935L16.0425 3.97185H0.75C0.551088 3.97185 0.360322 4.05087 0.21967 4.19152C0.0790176 4.33217 0 4.52294 0 4.72185H0C0 4.92076 0.0790176 5.11153 0.21967 5.25218C0.360322 5.39283 0.551088 5.47185 0.75 5.47185H16.0875L13.3725 8.17935C13.3022 8.24907 13.2464 8.33202 13.2083 8.42342C13.1703 8.51481 13.1507 8.61284 13.1507 8.71185C13.1507 8.81086 13.1703 8.90889 13.2083 9.00028C13.2464 9.09168 13.3022 9.17463 13.3725 9.24435C13.4422 9.31465 13.5252 9.37044 13.6166 9.40852C13.708 9.4466 13.806 9.4662 13.905 9.4662C14.004 9.4662 14.102 9.4466 14.1934 9.40852C14.2848 9.37044 14.3678 9.31465 14.4375 9.24435L17.34 6.33435C17.7614 5.91247 17.998 5.3406 17.998 4.74435C17.998 4.1481 17.7614 3.57623 17.34 3.15435Z" fill="#0A75BF"/>
</svg>
