<svg width="24" height="24" viewBox="0 0 24 24" fill="none" xmlns="http://www.w3.org/2000/svg">
<path d="M5.00022 9.99998H7.00022C7.40773 10.0581 7.82317 10.0206 8.21367 9.8904C8.60416 9.7602 8.95899 9.54088 9.25006 9.24981C9.54112 8.95875 9.76044 8.60392 9.89064 8.21342C10.0208 7.82293 10.0584 7.40748 10.0002 6.99998V4.99998C10.0584 4.59247 10.0208 4.17703 9.89064 3.78653C9.76044 3.39604 9.54112 3.04121 9.25006 2.75014C8.95899 2.45907 8.60416 2.23976 8.21367 2.10955C7.82317 1.97935 7.40773 1.94184 7.00022 1.99998H5.00022C4.59272 1.94184 4.17727 1.97935 3.78678 2.10955C3.39628 2.23976 3.04145 2.45907 2.75039 2.75014C2.45932 3.04121 2.24 3.39604 2.1098 3.78653C1.9796 4.17703 1.94208 4.59247 2.00022 4.99998V6.99998C1.94208 7.40748 1.9796 7.82293 2.1098 8.21342C2.24 8.60392 2.45932 8.95875 2.75039 9.24981C3.04145 9.54088 3.39628 9.7602 3.78678 9.8904C4.17727 10.0206 4.59272 10.0581 5.00022 9.99998V9.99998Z" stroke="#C4C4C4" stroke-width="1.5" stroke-linecap="round" stroke-linejoin="round"/>
<path d="M17.0002 9.99998H19.0002C19.4077 10.0581 19.8232 10.0206 20.2137 9.8904C20.6042 9.7602 20.959 9.54088 21.2501 9.24981C21.5411 8.95875 21.7604 8.60392 21.8906 8.21342C22.0208 7.82293 22.0584 7.40748 22.0002 6.99998V4.99998C22.0584 4.59247 22.0208 4.17703 21.8906 3.78653C21.7604 3.39604 21.5411 3.04121 21.2501 2.75014C20.959 2.45907 20.6042 2.23976 20.2137 2.10955C19.8232 1.97935 19.4077 1.94184 19.0002 1.99998H17.0002C16.5927 1.94184 16.1773 1.97935 15.7868 2.10955C15.3963 2.23976 15.0415 2.45907 14.7504 2.75014C14.4593 3.04121 14.24 3.39604 14.1098 3.78653C13.9796 4.17703 13.9421 4.59247 14.0002 4.99998V6.99998C13.9421 7.40748 13.9796 7.82293 14.1098 8.21342C14.24 8.60392 14.4593 8.95875 14.7504 9.24981C15.0415 9.54088 15.3963 9.7602 15.7868 9.8904C16.1773 10.0206 16.5927 10.0581 17.0002 9.99998V9.99998Z" stroke="#C4C4C4" stroke-width="1.5" stroke-linecap="round" stroke-linejoin="round"/>
<path d="M17.0002 22H19.0002C19.4077 22.0581 19.8232 22.0206 20.2137 21.8904C20.6042 21.7602 20.959 21.5409 21.2501 21.2498C21.5411 20.9587 21.7604 20.6039 21.8906 20.2134C22.0208 19.8229 22.0584 19.4075 22.0002 19V17C22.0584 16.5925 22.0208 16.177 21.8906 15.7865C21.7604 15.396 21.5411 15.0412 21.2501 14.7501C20.959 14.4591 20.6042 14.2398 20.2137 14.1096C19.8232 13.9794 19.4077 13.9418 19.0002 14H17.0002C16.5927 13.9418 16.1773 13.9794 15.7868 14.1096C15.3963 14.2398 15.0415 14.4591 14.7504 14.7501C14.4593 15.0412 14.24 15.396 14.1098 15.7865C13.9796 16.177 13.9421 16.5925 14.0002 17V19C13.9421 19.4075 13.9796 19.8229 14.1098 20.2134C14.24 20.6039 14.4593 20.9587 14.7504 21.2498C15.0415 21.5409 15.3963 21.7602 15.7868 21.8904C16.1773 22.0206 16.5927 22.0581 17.0002 22V22Z" stroke="#C4C4C4" stroke-width="1.5" stroke-linecap="round" stroke-linejoin="round"/>
<path d="M5.00022 22H7.00022C7.40773 22.0581 7.82317 22.0206 8.21367 21.8904C8.60416 21.7602 8.95899 21.5409 9.25006 21.2498C9.54112 20.9587 9.76044 20.6039 9.89064 20.2134C10.0208 19.8229 10.0584 19.4075 10.0002 19V17C10.0584 16.5925 10.0208 16.177 9.89064 15.7865C9.76044 15.396 9.54112 15.0412 9.25006 14.7501C8.95899 14.4591 8.60416 14.2398 8.21367 14.1096C7.82317 13.9794 7.40773 13.9418 7.00022 14H5.00022C4.59272 13.9418 4.17727 13.9794 3.78678 14.1096C3.39628 14.2398 3.04145 14.4591 2.75039 14.7501C2.45932 15.0412 2.24 15.396 2.1098 15.7865C1.9796 16.177 1.94208 16.5925 2.00022 17V19C1.94208 19.4075 1.9796 19.8229 2.1098 20.2134C2.24 20.6039 2.45932 20.9587 2.75039 21.2498C3.04145 21.5409 3.39628 21.7602 3.78678 21.8904C4.17727 22.0206 4.59272 22.0581 5.00022 22V22Z" stroke="#C4C4C4" stroke-width="1.5" stroke-linecap="round" stroke-linejoin="round"/>
</svg>
