<svg width="33" height="33" viewBox="0 0 33 33" fill="none" xmlns="http://www.w3.org/2000/svg">
<path d="M16.5275 4.00122C14.3395 4.00122 12.241 4.87041 10.6939 6.41759C9.14668 7.96476 8.27749 10.0632 8.27749 12.2512V16.225C8.23348 17.2162 7.96553 18.1846 7.49374 19.0575L5.91249 21.6837C5.67635 22.031 5.52649 22.4295 5.47537 22.8463C5.42426 23.2631 5.47335 23.6861 5.61858 24.0801C5.76381 24.4741 6.00099 24.8278 6.31039 25.1117C6.61979 25.3956 6.99248 25.6016 7.39749 25.7125C13.3184 27.6925 19.7228 27.6925 25.6437 25.7125C26.0348 25.582 26.3916 25.3653 26.6876 25.0784C26.9837 24.7915 27.2114 24.4417 27.354 24.0548C27.4966 23.668 27.5504 23.254 27.5114 22.8436C27.4724 22.4332 27.3416 22.0368 27.1287 21.6837L25.5475 19.0575C25.0862 18.1812 24.8233 17.2142 24.7775 16.225V12.2512C24.771 10.0652 23.8997 7.97056 22.3539 6.4248C20.8081 4.87904 18.7135 4.00775 16.5275 4.00122V4.00122Z" stroke="#575353" stroke-width="1.5" stroke-linecap="round"/>
<path d="M19.0713 4.40006C18.6394 4.27285 18.198 4.18088 17.7513 4.12506C16.4899 3.95764 15.2075 4.05125 13.9838 4.40006C14.1847 3.88919 14.5349 3.45067 14.9886 3.1416C15.4423 2.83253 15.9785 2.66724 16.5275 2.66724C17.0765 2.66724 17.6127 2.83253 18.0665 3.1416C18.5202 3.45067 18.8703 3.88919 19.0713 4.40006V4.40006Z" stroke="#575353" stroke-width="1.5" stroke-linecap="round" stroke-linejoin="round"/>
<path d="M20.6525 26.2075C20.6493 27.3005 20.2136 28.3478 19.4407 29.1207C18.6679 29.8936 17.6205 30.3293 16.5275 30.3325C15.4342 30.3299 14.3863 29.8949 13.6125 29.1225C12.8401 28.3487 12.4051 27.3008 12.4025 26.2075" stroke="#575353" stroke-width="1.5"/>
</svg>
