<svg width="35" height="35" viewBox="0 0 35 35" fill="none" xmlns="http://www.w3.org/2000/svg">
<path d="M29.1667 16.0417C29.1667 18.6376 28.3969 21.1752 26.9547 23.3336C25.5125 25.492 23.4627 27.1743 21.0644 28.1677C18.6661 29.1611 16.0271 29.421 13.4811 28.9146C10.9351 28.4081 8.59645 27.1581 6.76089 25.3225C4.92532 23.487 3.67529 21.1483 3.16886 18.6023C2.66242 16.0563 2.92234 13.4173 3.91574 11.019C4.90914 8.62075 6.59141 6.5709 8.7498 5.12871C10.9082 3.68652 13.4458 2.91675 16.0417 2.91675C19.5226 2.91675 22.861 4.29956 25.3224 6.76097C27.7839 9.22239 29.1667 12.5608 29.1667 16.0417V16.0417Z" stroke="#575353" stroke-width="1.5" stroke-linecap="round" stroke-linejoin="round"/>
<path d="M27.6063 30.1729C28.3792 32.5062 30.1438 32.7396 31.5 30.6979C32.7396 28.8312 31.9229 27.3 29.6771 27.3C29.3205 27.2656 28.9611 27.3253 28.6348 27.473C28.3084 27.6207 28.0264 27.8514 27.817 28.142C27.6075 28.4326 27.4778 28.773 27.4408 29.1294C27.4039 29.4857 27.4609 29.8455 27.6063 30.1729V30.1729Z" stroke="#575353" stroke-width="1.5" stroke-linecap="round" stroke-linejoin="round"/>
</svg>
