<svg width="24" height="24" viewBox="0 0 24 24" fill="none" xmlns="http://www.w3.org/2000/svg">
<path d="M20.9101 11.1201C20.8495 13.5832 20.001 15.9621 18.4892 17.9076C16.9774 19.8531 14.8819 21.2629 12.5101 21.9301C12.176 22.0201 11.8241 22.0201 11.4901 21.9301C9.11827 21.2629 7.02273 19.8531 5.51093 17.9076C3.99914 15.9621 3.15069 13.5832 3.09009 11.1201L3.09009 6.7301C3.11171 6.29257 3.25268 5.86931 3.4977 5.50618C3.74272 5.14305 4.08246 4.85391 4.48009 4.6701L10.0501 2.3901C11.3035 1.88006 12.7067 1.88006 13.9601 2.3901L19.5301 4.6701C19.9263 4.85579 20.2648 5.14541 20.5096 5.50814C20.7543 5.87088 20.8962 6.29316 20.9201 6.7301L20.9101 11.1201Z" stroke="#8C8888" stroke-width="1.5" stroke-linecap="round" stroke-linejoin="round"/>
</svg>
