<svg width="33" height="33" viewBox="0 0 33 33" fill="none" xmlns="http://www.w3.org/2000/svg">
<path d="M20.625 16.5C20.625 17.3158 20.3831 18.1134 19.9298 18.7917C19.4766 19.4701 18.8323 19.9988 18.0786 20.311C17.3248 20.6232 16.4954 20.7049 15.6953 20.5457C14.8951 20.3866 14.1601 19.9937 13.5832 19.4168C13.0063 18.8399 12.6134 18.1049 12.4543 17.3047C12.2951 16.5046 12.3768 15.6752 12.689 14.9214C13.0012 14.1677 13.5299 13.5234 14.2083 13.0702C14.8866 12.6169 15.6842 12.375 16.5 12.375C17.594 12.375 18.6432 12.8096 19.4168 13.5832C20.1904 14.3568 20.625 15.406 20.625 16.5Z" stroke="#575353" stroke-width="1.5" stroke-linecap="round" stroke-linejoin="round"/>
<path d="M2.75 17.71V15.29C2.75218 14.5977 3.02812 13.9345 3.51759 13.445C4.00705 12.9556 4.67029 12.6796 5.3625 12.6775C7.85125 12.6775 8.86875 10.9174 7.6175 8.7587C7.27395 8.15857 7.18235 7.44672 7.36277 6.77916C7.54319 6.11161 7.98091 5.54281 8.58 5.19745L10.9587 3.8362C11.484 3.53058 12.1091 3.4458 12.6968 3.60047C13.2846 3.75513 13.7869 4.1366 14.0938 4.6612L14.245 4.92245C15.4825 7.0812 17.5175 7.0812 18.7687 4.92245L18.92 4.6612C19.2268 4.1366 19.7292 3.75513 20.3169 3.60047C20.9046 3.4458 21.5297 3.53058 22.055 3.8362L24.4338 5.19745C25.0328 5.54281 25.4706 6.11161 25.651 6.77916C25.8314 7.44672 25.7398 8.15857 25.3962 8.7587C24.145 10.9174 25.1625 12.6775 27.6513 12.6775C28.3435 12.6796 29.0067 12.9556 29.4962 13.445C29.9856 13.9345 30.2616 14.5977 30.2638 15.29V17.71C30.2616 18.4022 29.9856 19.0654 29.4962 19.5549C29.0067 20.0443 28.3435 20.3203 27.6513 20.3224C25.1625 20.3224 24.145 22.0825 25.3962 24.2412C25.7398 24.8413 25.8314 25.5532 25.651 26.2207C25.4706 26.8883 25.0328 27.4571 24.4338 27.8025L22.055 29.1637C21.5297 29.4693 20.9046 29.5541 20.3169 29.3994C19.7292 29.2448 19.2268 28.8633 18.92 28.3387L18.7687 28.0774C17.5312 25.9187 15.4962 25.9187 14.245 28.0774L14.0938 28.3387C13.7869 28.8633 13.2846 29.2448 12.6968 29.3994C12.1091 29.5541 11.484 29.4693 10.9587 29.1637L8.58 27.8025C7.98091 27.4571 7.54319 26.8883 7.36277 26.2207C7.18235 25.5532 7.27395 24.8413 7.6175 24.2412C8.86875 22.0825 7.85125 20.3224 5.3625 20.3224C4.67029 20.3203 4.00705 20.0443 3.51759 19.5549C3.02812 19.0654 2.75218 18.4022 2.75 17.71V17.71Z" stroke="#575353" stroke-width="1.5" stroke-linecap="round" stroke-linejoin="round"/>
</svg>
