<svg width="24" height="24" viewBox="0 0 24 24" fill="none" xmlns="http://www.w3.org/2000/svg">
<path d="M3.01001 11.22V15.71C3.01001 20.2 4.81001 22 9.30001 22H14.69C19.18 22 20.98 20.2 20.98 15.71V11.22" stroke="#8C8888" stroke-width="1.5" stroke-linecap="round" stroke-linejoin="round"/>
<path d="M11.9999 12C12.424 12.0081 12.8448 11.9251 13.2341 11.7566C13.6233 11.5881 13.9719 11.3381 14.2562 11.0234C14.5406 10.7087 14.7541 10.3367 14.8824 9.93242C15.0107 9.52816 15.0508 9.10107 14.9999 8.68L14.3399 2H9.66991L8.99991 8.68C8.94905 9.10107 8.98912 9.52816 9.11742 9.93242C9.24571 10.3367 9.45925 10.7087 9.74361 11.0234C10.028 11.3381 10.3765 11.5881 10.7658 11.7566C11.155 11.9251 11.5759 12.0081 11.9999 12V12Z" stroke="#8C8888" stroke-width="1.5" stroke-linecap="round" stroke-linejoin="round"/>
<path d="M18.31 12C18.7765 12.0096 19.2396 11.9188 19.668 11.7339C20.0964 11.5489 20.48 11.2741 20.7929 10.928C21.1058 10.5819 21.3407 10.1726 21.4817 9.72781C21.6227 9.28304 21.6664 8.81316 21.61 8.35L21.33 5.6C20.97 3 19.97 2 17.35 2H14.3L15 9.01C15.1003 9.82298 15.4901 10.5726 16.0979 11.1217C16.7058 11.6708 17.4911 11.9826 18.31 12V12Z" stroke="#8C8888" stroke-width="1.5" stroke-linecap="round" stroke-linejoin="round"/>
<path d="M5.64004 12C6.45838 11.984 7.24329 11.6724 7.84984 11.1228C8.45639 10.5733 8.84362 9.8228 8.94004 9.01L9.16004 6.8L9.64004 2H6.59004C3.97004 2 2.97004 3 2.61004 5.6L2.34004 8.35C2.28365 8.81316 2.32742 9.28304 2.4684 9.72781C2.60938 10.1726 2.84428 10.5819 3.1572 10.928C3.47011 11.2741 3.85373 11.5489 4.2821 11.7339C4.71046 11.9188 5.17356 12.0096 5.64004 12V12Z" stroke="#8C8888" stroke-width="1.5" stroke-linecap="round" stroke-linejoin="round"/>
<path d="M12 17C11.6603 16.9509 11.3138 16.9817 10.9881 17.09C10.6624 17.1983 10.3664 17.381 10.1237 17.6237C9.88101 17.8664 9.69825 18.1624 9.58998 18.4881C9.48171 18.8138 9.45089 19.1603 9.49999 19.5V22H14.5V19.5C14.5491 19.1603 14.5183 18.8138 14.41 18.4881C14.3017 18.1624 14.119 17.8664 13.8763 17.6237C13.6336 17.381 13.3376 17.1983 13.0119 17.09C12.6862 16.9817 12.3397 16.9509 12 17V17Z" stroke="#8C8888" stroke-width="1.5" stroke-linecap="round" stroke-linejoin="round"/>
</svg>
