<svg width="141" height="140" viewBox="0 0 141 140" fill="none" xmlns="http://www.w3.org/2000/svg">
<path d="M69.7765 0C108.286 0 139.553 31.2668 139.553 69.7765C139.553 108.286 108.286 139.553 69.7765 139.553C31.2668 139.553 0 108.286 0 69.7765C0 31.2668 31.2668 0 69.7765 0Z" fill="#0862A0"/>
<path d="M34.1241 76.5466L60.9084 99.5751L108.717 44.2676" stroke="white" stroke-width="24.3565" stroke-linecap="round"/>
<g opacity="0.803787">
<path opacity="0.803787" d="M129.567 13.5698C131.636 11.4493 135.037 11.4073 137.158 13.4762C139.278 15.545 139.32 18.9465 137.251 21.067C135.183 23.1876 131.781 23.2296 129.661 21.1607C127.54 19.0919 127.498 15.6904 129.567 13.5698Z" fill="white"/>
</g>
<g opacity="0.803787">
<path opacity="0.803787" d="M133.827 34.4128C135.705 33.7993 137.727 34.8254 138.341 36.7028C138.954 38.5801 137.928 40.6025 136.051 41.216C134.173 41.8295 132.151 40.8034 131.537 38.926C130.924 37.0487 131.95 35.0263 133.827 34.4128Z" fill="white"/>
</g>
</svg>
