<svg width="24" height="24" viewBox="0 0 24 24" fill="none" xmlns="http://www.w3.org/2000/svg">
<path d="M2.5 13.2063V11.4807C2.50211 10.4867 2.89893 9.53393 3.60361 8.83104C4.30829 8.12815 5.26344 7.73233 6.26 7.73022L17.74 7.73022C18.7366 7.73233 19.6917 8.12815 20.3964 8.83104C21.1011 9.53393 21.4979 10.4867 21.5 11.4807V12.917H19.48C19.1962 12.9188 18.9159 12.9791 18.6566 13.094C18.3973 13.2089 18.1646 13.376 17.973 13.5849C17.7815 13.7937 17.6353 14.0398 17.5436 14.3076C17.4518 14.5755 17.4166 14.8593 17.44 15.1414C17.5047 15.6638 17.7614 16.1437 18.1604 16.4883C18.5594 16.8328 19.0724 17.0175 19.6 17.0066H21.5V18.1936C21.4979 19.1877 21.1011 20.1404 20.3964 20.8433C19.6917 21.5462 18.7366 21.942 17.74 21.9441H12.26" stroke="#8C8888" stroke-width="1.5" stroke-linecap="round" stroke-linejoin="round"/>
<path d="M2.50001 12.3785V7.82009C2.49872 7.24219 2.67416 6.67763 3.00292 6.20178C3.33169 5.72592 3.79813 5.3614 4.34001 5.15686L12.28 2.16447C12.5674 2.05645 12.8767 2.01952 13.1815 2.05685C13.4863 2.09417 13.7775 2.20464 14.0302 2.37879C14.2828 2.55293 14.4894 2.78557 14.6322 3.05677C14.7749 3.32797 14.8497 3.62964 14.85 3.93596V7.72633" stroke="#8C8888" stroke-width="1.5" stroke-linecap="round" stroke-linejoin="round"/>
<path d="M22.5589 13.9347V15.9895C22.5572 16.2554 22.4519 16.5101 22.2653 16.7C22.0787 16.8899 21.8254 16.9999 21.5589 17.0069H19.5989C19.0713 17.0178 18.5583 16.8331 18.1593 16.4885C17.7603 16.144 17.5036 15.6641 17.4389 15.1416C17.4105 14.8431 17.4497 14.542 17.5535 14.2606C17.6574 13.9792 17.8233 13.7247 18.0389 13.5158C18.2262 13.3245 18.4503 13.173 18.6978 13.0702C18.9452 12.9673 19.2109 12.9153 19.4789 12.9173H21.5589C21.8254 12.9243 22.0787 13.0343 22.2653 13.2242C22.4519 13.414 22.5572 13.6688 22.5589 13.9347V13.9347Z" stroke="#8C8888" stroke-width="1.5" stroke-linecap="round" stroke-linejoin="round"/>
<path d="M7 11.9695H14" stroke="#8C8888" stroke-width="1.5" stroke-linecap="round" stroke-linejoin="round"/>
<path d="M3 16.458H8.34C8.64757 16.4583 8.94247 16.5803 9.15995 16.7972C9.37744 17.0141 9.49974 17.3083 9.5 17.6151V18.8918" stroke="#8C8888" stroke-width="1.5" stroke-linecap="round" stroke-linejoin="round"/>
<path d="M4.22 15.2412L3 16.4581L4.22 17.675" stroke="#8C8888" stroke-width="1.5" stroke-linecap="round" stroke-linejoin="round"/>
<path d="M9.5 21.7248H4.16C3.85243 21.7246 3.55753 21.6026 3.34005 21.3856C3.12256 21.1687 3.00026 20.8746 3 20.5678V19.291" stroke="#8C8888" stroke-width="1.5" stroke-linecap="round" stroke-linejoin="round"/>
<path d="M8.28101 22.9416L9.50101 21.7247L8.28101 20.5078" stroke="#8C8888" stroke-width="1.5" stroke-linecap="round" stroke-linejoin="round"/>
</svg>
