<svg width="282" height="399" viewBox="0 0 282 399" fill="none" xmlns="http://www.w3.org/2000/svg">
<path d="M194.653 11.0976C104.974 -27.9875 38.8048 55.7311 16.6147 103.107C-52.8635 297.348 124.505 416.047 209.822 395.752C327.659 367.721 272.949 287.018 230.864 250.17C199.033 210.295 208.419 115.116 217.091 72.5101C229.946 44.8741 207.278 20.4741 194.653 11.0976Z" fill="#0B3A5A"/>
<path d="M16.6147 103.107L16.1619 102.895L16.1518 102.916L16.1439 102.939L16.6147 103.107ZM194.653 11.0976L194.951 10.6962L194.905 10.6621L194.853 10.6392L194.653 11.0976ZM217.091 72.5101L216.638 72.2992L216.613 72.3526L216.601 72.4103L217.091 72.5101ZM230.864 250.17L230.474 250.482L230.501 250.517L230.535 250.546L230.864 250.17ZM209.822 395.752L209.938 396.239L209.822 395.752ZM17.0674 103.319C28.1374 79.6848 50.1793 46.9882 80.6175 25.0852C111.035 3.19713 149.811 -7.90047 194.453 11.556L194.853 10.6392C149.816 -8.98947 110.668 2.22967 80.0334 24.2736C49.4199 46.3026 27.2821 79.1533 16.1619 102.895L17.0674 103.319ZM194.355 11.499C200.627 16.1573 209.391 24.5479 214.985 35.1892C220.571 45.8173 222.983 58.6588 216.638 72.2992L217.545 72.7209C224.055 58.7253 221.56 45.5489 215.87 34.7239C210.187 23.9121 201.304 15.4144 194.951 10.6962L194.355 11.499ZM216.601 72.4103C212.26 93.7414 207.74 128.224 208.289 162.372C208.564 179.447 210.106 196.45 213.576 211.691C217.046 226.927 222.451 240.432 230.474 250.482L231.255 249.858C223.362 239.97 218.003 226.625 214.552 211.469C211.101 196.317 209.563 179.386 209.289 162.356C208.741 128.294 213.251 93.8842 217.581 72.6098L216.601 72.4103ZM230.535 250.546C241.031 259.736 252.313 271.66 261.492 284.807C270.674 297.959 277.731 312.304 279.819 326.341C281.905 340.359 279.04 354.071 268.368 366.028C257.679 378.005 239.115 388.27 209.706 395.266L209.938 396.239C239.448 389.219 258.234 378.884 269.114 366.694C280.01 354.485 282.931 340.462 280.809 326.194C278.689 311.945 271.542 297.454 262.312 284.234C253.079 271.01 241.74 259.028 231.194 249.794L230.535 250.546ZM209.706 395.266C188.511 400.308 161.54 396.725 134.06 385.441C106.588 374.16 78.652 355.199 55.5415 329.546C9.33386 278.255 -17.5874 200.211 17.0854 103.275L16.1439 102.939C-18.6615 200.245 8.36229 278.671 54.7985 330.215C78.01 355.98 106.07 375.029 133.68 386.366C161.281 397.7 188.474 401.344 209.938 396.239L209.706 395.266Z" fill="#0B3A5A"/>
</svg>
