<svg width="16" height="16" viewBox="0 0 16 16" fill="none" xmlns="http://www.w3.org/2000/svg">
<path d="M3.58151 16H0.264292V5.31762H3.58151V16ZM1.92111 3.86044C0.860376 3.86044 0 2.98185 0 1.92111C7.59231e-09 1.4116 0.202403 0.92296 0.562681 0.562681C0.92296 0.202403 1.4116 0 1.92111 0C2.43063 0 2.91927 0.202403 3.27955 0.562681C3.63983 0.92296 3.84223 1.4116 3.84223 1.92111C3.84223 2.98185 2.98149 3.86044 1.92111 3.86044ZM15.9968 16H12.6867V10.7999C12.6867 9.56057 12.6617 7.97125 10.962 7.97125C9.23735 7.97125 8.97306 9.31771 8.97306 10.7106V16H5.65941V5.31762H8.84091V6.77479H8.88734C9.33021 5.93549 10.412 5.04976 12.026 5.04976C15.3832 5.04976 16.0004 7.26052 16.0004 10.132V16H15.9968Z" fill="#F8F7FA"/>
</svg>
