<svg width="367" height="314" viewBox="0 0 367 314" fill="none" xmlns="http://www.w3.org/2000/svg">
<path d="M365.955 150.904C366.015 152.25 366.055 153.6 366.075 154.954L365.075 154.969C365.085 155.641 365.09 156.315 365.09 156.989C365.09 157.663 365.085 158.337 365.075 159.009L366.075 159.024C366.055 160.378 366.015 161.728 365.955 163.074L364.956 163.03C364.896 164.373 364.817 165.711 364.718 167.045L365.715 167.119C365.615 168.469 365.495 169.814 365.355 171.155L364.36 171.051C364.221 172.387 364.062 173.718 363.883 175.045L364.874 175.178C364.694 176.519 364.494 177.855 364.274 179.185L363.287 179.022C363.069 180.347 362.831 181.667 362.573 182.981L363.555 183.173C363.295 184.5 363.016 185.821 362.717 187.137L361.742 186.916C361.445 188.225 361.129 189.528 360.794 190.825L361.762 191.075C361.424 192.384 361.067 193.686 360.691 194.983L359.731 194.704C359.357 195.993 358.965 197.275 358.554 198.551L359.506 198.858C359.092 200.144 358.659 201.423 358.208 202.696L357.266 202.362C356.818 203.626 356.351 204.884 355.867 206.134L356.8 206.496C356.312 207.755 355.806 209.008 355.282 210.253L354.36 209.865C353.84 211.101 353.303 212.33 352.748 213.551L353.658 213.965C353.099 215.195 352.523 216.417 351.929 217.631L351.031 217.192C350.442 218.396 349.836 219.592 349.214 220.781L350.1 221.245C349.473 222.441 348.829 223.63 348.169 224.81L347.296 224.322C346.642 225.491 345.971 226.652 345.284 227.805L346.143 228.317C345.452 229.477 344.744 230.629 344.02 231.772L343.175 231.237C342.459 232.369 341.726 233.492 340.979 234.606L341.809 235.164C341.056 236.285 340.288 237.398 339.504 238.502L338.689 237.923C337.914 239.015 337.123 240.098 336.318 241.172L337.118 241.772C336.308 242.852 335.483 243.923 334.643 244.986L333.858 244.365C333.028 245.415 332.183 246.456 331.323 247.488L332.091 248.128C331.227 249.166 330.348 250.194 329.456 251.212L328.704 250.553C327.821 251.56 326.925 252.557 326.015 253.545L326.75 254.222C325.835 255.215 324.906 256.199 323.964 257.172L323.246 256.477C322.315 257.439 321.37 258.391 320.413 259.333L321.114 260.046C320.152 260.993 319.177 261.93 318.189 262.857L317.504 262.128C316.528 263.044 315.539 263.95 314.538 264.846L315.205 265.591C314.198 266.492 313.179 267.382 312.149 268.261L311.499 267.5C310.481 268.369 309.451 269.228 308.409 270.076L309.04 270.852C307.993 271.704 306.933 272.546 305.863 273.378L305.25 272.588C304.192 273.409 303.124 274.219 302.044 275.019L302.639 275.822C301.554 276.626 300.457 277.419 299.35 278.202L298.773 277.385C297.68 278.157 296.576 278.919 295.462 279.669L296.02 280.499C294.9 281.253 293.769 281.997 292.628 282.729L292.087 281.888C290.961 282.611 289.825 283.323 288.679 284.024L289.201 284.877C288.048 285.581 286.886 286.275 285.714 286.957L285.211 286.092C284.054 286.766 282.888 287.428 281.712 288.079L282.196 288.954C281.015 289.608 279.825 290.25 278.625 290.882L278.16 289.996C276.974 290.62 275.78 291.232 274.577 291.833L275.024 292.728C273.817 293.33 272.6 293.922 271.376 294.502L270.948 293.598C269.737 294.171 268.517 294.733 267.29 295.283L267.699 296.195C266.468 296.747 265.228 297.287 263.981 297.815L263.591 296.894C262.357 297.417 261.114 297.928 259.864 298.427L260.235 299.356C258.983 299.856 257.723 300.344 256.456 300.82L256.104 299.884C254.849 300.356 253.585 300.817 252.315 301.265L252.647 302.208C251.377 302.656 250.099 303.092 248.815 303.517L248.501 302.567C247.226 302.988 245.944 303.397 244.655 303.795L244.95 304.75C243.664 305.147 242.37 305.531 241.071 305.903L240.796 304.942C239.503 305.312 238.205 305.67 236.9 306.016L237.156 306.982C235.856 307.327 234.55 307.659 233.237 307.979L233 307.008C231.695 307.326 230.383 307.633 229.065 307.927L229.283 308.903C227.97 309.196 226.652 309.477 225.327 309.745L225.129 308.765C223.813 309.032 222.491 309.287 221.164 309.529L221.344 310.513C220.019 310.754 218.689 310.984 217.354 311.201L217.193 310.214C215.869 310.429 214.54 310.632 213.206 310.823L213.347 311.813C212.012 312.004 210.673 312.182 209.328 312.348L209.206 311.355C207.876 311.519 206.542 311.671 205.203 311.81L205.306 312.805C203.963 312.944 202.615 313.072 201.262 313.186L201.178 312.19C199.845 312.303 198.508 312.403 197.166 312.491L197.232 313.489C195.884 313.578 194.532 313.654 193.176 313.717L193.13 312.719C191.793 312.781 190.452 312.831 189.107 312.869L189.135 313.869C187.787 313.906 186.436 313.932 185.081 313.944L185.071 312.944C184.397 312.951 183.721 312.954 183.045 312.954C182.369 312.954 181.693 312.951 181.019 312.944L181.009 313.944C179.654 313.932 178.302 313.906 176.954 313.869L176.982 312.869C175.638 312.831 174.297 312.781 172.96 312.718L172.914 313.717C171.558 313.654 170.206 313.578 168.858 313.489L168.924 312.491C167.582 312.403 166.245 312.303 164.912 312.19L164.827 313.186C163.475 313.072 162.127 312.944 160.784 312.805L160.887 311.81C159.548 311.671 158.214 311.519 156.884 311.355L156.762 312.348C155.417 312.182 154.078 312.004 152.743 311.813L152.884 310.823C151.55 310.632 150.221 310.429 148.897 310.214L148.736 311.201C147.401 310.984 146.071 310.754 144.746 310.513L144.926 309.529C143.599 309.287 142.277 309.032 140.961 308.765L140.762 309.745C139.438 309.477 138.12 309.196 136.807 308.903L137.025 307.927C135.707 307.633 134.395 307.326 133.09 307.008L132.853 307.979C131.54 307.659 130.234 307.327 128.934 306.982L129.19 306.016C127.885 305.67 126.587 305.312 125.294 304.942L125.019 305.903C123.72 305.531 122.426 305.147 121.14 304.75L121.434 303.795C120.146 303.397 118.864 302.988 117.589 302.567L117.275 303.517C115.991 303.092 114.713 302.656 113.443 302.208L113.775 301.265C112.505 300.817 111.241 300.356 109.986 299.884L109.634 300.82C108.367 300.344 107.107 299.856 105.855 299.356L106.226 298.427C104.976 297.928 103.733 297.417 102.499 296.894L102.109 297.815C100.862 297.287 99.6224 296.747 98.3914 296.195L98.8004 295.283C97.5726 294.733 96.3531 294.171 95.1421 293.598L94.7143 294.502C93.4896 293.922 92.2734 293.33 91.066 292.728L91.5128 291.833C90.3098 291.232 89.1157 290.62 87.9305 289.996L87.4649 290.882C86.2653 290.25 85.0748 289.608 83.8936 288.954L84.378 288.079C83.2022 287.428 82.0357 286.766 80.8787 286.092L80.3757 286.957C79.2039 286.275 78.0417 285.581 76.8895 284.877L77.4112 284.024C76.265 283.323 75.1287 282.611 74.0026 281.888L73.4624 282.729C72.3211 281.997 71.1902 281.253 70.0697 280.499L70.6284 279.669C69.5141 278.919 68.4103 278.157 67.3172 277.385L66.7402 278.202C65.6328 277.419 64.5362 276.626 63.4508 275.822L64.0461 275.019C62.9664 274.219 61.8978 273.409 60.8405 272.588L60.2273 273.378C59.1566 272.546 58.0975 271.704 57.0501 270.852L57.6814 270.076C56.6393 269.228 55.609 268.369 54.5906 267.5L53.9415 268.261C52.9106 267.382 51.8918 266.492 50.8854 265.591L51.5522 264.846C50.5509 263.95 49.5619 263.044 48.5856 262.128L47.9014 262.857C46.9132 261.93 45.9379 260.993 44.9756 260.046L45.6771 259.333C44.7198 258.391 43.7754 257.439 42.8443 256.477L42.1258 257.172C41.1836 256.199 40.255 255.215 39.34 254.222L40.0754 253.545C39.1653 252.557 38.2689 251.56 37.3864 250.553L36.6344 251.212C35.7416 250.194 34.8629 249.166 33.9986 248.128L34.7669 247.488C33.9075 246.456 33.0624 245.415 32.2318 244.365L31.4475 244.985C30.6075 243.923 29.7822 242.852 28.972 241.772L29.772 241.172C28.9667 240.098 28.1763 239.015 27.4011 237.923L26.5858 238.502C25.802 237.398 25.0337 236.285 24.2811 235.164L25.1115 234.606C24.3636 233.492 23.6314 232.369 22.915 231.237L22.0701 231.772C21.3462 230.629 20.6384 229.477 19.9469 228.317L20.806 227.805C20.119 226.652 19.4483 225.491 18.7941 224.322L17.9214 224.81C17.261 223.63 16.6172 222.441 15.9904 221.245L16.8762 220.781C16.2536 219.592 15.6478 218.396 15.0592 217.192L14.1608 217.631C13.5671 216.417 12.9907 215.195 12.4318 213.965L13.3422 213.551C12.7872 212.33 12.2496 211.101 11.7298 209.865L10.808 210.253C10.2842 209.008 9.77826 207.755 9.29041 206.495L10.2229 206.134C9.73864 204.884 9.27234 203.626 8.82429 202.362L7.88173 202.696C7.4307 201.423 6.99801 200.144 6.58393 198.858L7.53582 198.551C7.12502 197.275 6.73269 195.993 6.35907 194.704L5.39861 194.982C5.02285 193.686 4.66588 192.384 4.32795 191.075L5.29619 190.825C4.96123 189.528 4.64513 188.225 4.34814 186.915L3.37292 187.137C3.07449 185.821 2.79521 184.5 2.53535 183.173L3.51671 182.981C3.25939 181.667 3.02126 180.347 2.80256 179.022L1.81591 179.185C1.59632 177.854 1.39618 176.519 1.21574 175.178L2.20681 175.045C2.02834 173.718 1.8693 172.387 1.72993 171.051L0.735322 171.155C0.595488 169.814 0.475309 168.469 0.375032 167.119L1.37229 167.045C1.27322 165.711 1.19372 164.373 1.13404 163.03L0.135026 163.074C0.0751955 161.728 0.0351275 160.378 0.0150633 159.024L1.01495 159.009C1.00499 158.337 1 157.663 1 156.989C1 156.315 1.005 155.641 1.01496 154.969L0.0150658 154.954C0.0351316 153.6 0.075201 152.25 0.135032 150.904L1.13405 150.948C1.19373 149.605 1.27323 148.267 1.3723 146.933L0.375043 146.859C0.475321 145.509 0.595503 144.164 0.735338 142.823L1.72994 142.927C1.86932 141.591 2.02836 140.26 2.20683 138.933L1.21576 138.8C1.3962 137.459 1.59634 136.123 1.81593 134.793L2.80258 134.956C3.02128 133.631 3.25941 132.311 3.51673 130.997L2.53537 130.805C2.79523 129.478 3.07451 128.157 3.37295 126.841L4.34817 127.063C4.64516 125.753 4.96126 124.45 5.29622 123.153L4.32798 122.903C4.66591 121.594 5.02288 120.292 5.39864 118.996L6.3591 119.274C6.73272 117.985 7.12505 116.703 7.53585 115.427L6.58396 115.12C6.99804 113.834 7.43073 112.555 7.88176 111.282L8.82432 111.616C9.27237 110.352 9.73867 109.094 10.223 107.844L9.29045 107.483C9.77829 106.223 10.2842 104.97 10.808 103.725L11.7298 104.113C12.2497 102.877 12.7872 101.648 13.3422 100.427L12.4318 100.013C12.9907 98.7835 13.5671 97.5614 14.1608 96.347L15.0592 96.7862C15.6478 95.5822 16.2536 94.3858 16.8762 93.1973L15.9904 92.7332C16.6172 91.5368 17.261 90.3483 17.9215 89.168L18.7941 89.6563C19.4483 88.4872 20.119 87.3262 20.806 86.1734L19.947 85.6614C20.6384 84.5011 21.3463 83.3491 22.0702 82.2057L22.9151 82.7406C23.6314 81.6091 24.3636 80.4861 25.1115 79.3717L24.2811 78.8144C25.0337 77.6929 25.802 76.5801 26.5858 75.4762L27.4012 76.0552C28.1763 74.9634 28.9667 73.8805 29.7721 72.8065L28.972 72.2065C29.7822 71.1261 30.6075 70.0547 31.4475 68.9926L32.2318 69.6129C33.0624 68.5628 33.9075 67.5218 34.7669 66.4902L33.9986 65.8501C34.8629 64.8126 35.7416 63.7844 36.6344 62.7659L37.3864 63.4251C38.2689 62.4184 39.1653 61.421 40.0754 60.4333L39.34 59.7557C40.255 58.7626 41.1836 57.7793 42.1258 56.8059L42.8443 57.5014C43.7754 56.5394 44.7197 55.5871 45.6771 54.6448L44.9756 53.9321C45.9379 52.9849 46.9132 52.0476 47.9014 51.1206L48.5856 51.8499C49.5619 50.934 50.5508 50.028 51.5522 49.1322L50.8854 48.3869C51.8918 47.4866 52.9106 46.5965 53.9415 45.7169L54.5906 46.4777C55.6089 45.6088 56.6393 44.7502 57.6813 43.902L57.05 43.1264C58.0974 42.2739 59.1566 41.4319 60.2272 40.6006L60.8405 41.3904C61.8977 40.5696 62.9663 39.7591 64.046 38.9594L63.4508 38.1558C64.5362 37.3519 65.6328 36.5586 66.7402 35.7764L67.3172 36.5931C68.4103 35.821 69.5141 35.0596 70.6284 34.309L70.0697 33.4796C71.1901 32.7249 72.3211 31.9812 73.4624 31.2487L74.0025 32.0902C75.1287 31.3673 76.265 30.6554 77.4112 29.9545L76.8895 29.1014C78.0417 28.3968 79.2039 27.7034 80.3757 27.0214L80.8787 27.8857C82.0357 27.2123 83.2022 26.55 84.378 25.899L83.8936 25.0242C85.0748 24.3702 86.2653 23.7277 87.4649 23.0966L87.9305 23.9816C89.1157 23.3581 90.3098 22.746 91.5128 22.1453L91.066 21.2506C92.2734 20.6477 93.4896 20.0563 94.7143 19.4766L95.1421 20.3804C96.3532 19.8072 97.5727 19.2454 98.8004 18.6953L98.3915 17.7827C99.6224 17.2311 100.862 16.6912 102.109 16.1631L102.499 17.0839C103.733 16.5612 104.976 16.0501 106.226 15.5508L105.855 14.6221C107.107 14.1221 108.367 13.6339 109.634 13.1577L109.986 14.0937C111.241 13.6217 112.505 13.1615 113.775 12.7132L113.443 11.7702C114.713 11.322 115.991 10.8856 117.275 10.4614L117.589 11.4109C118.864 10.9898 120.146 10.5806 121.435 10.1835L121.14 9.22788C122.427 8.83151 123.72 8.44715 125.019 8.07494L125.295 9.03629C126.587 8.6662 127.885 8.30819 129.19 7.96241L128.934 6.99577C130.234 6.6513 131.54 6.31891 132.853 5.99876L133.09 6.97027C134.395 6.65168 135.707 6.34526 137.025 6.05118L136.807 5.07519C138.12 4.78219 139.438 4.50137 140.763 4.23288L140.961 5.21293C142.277 4.94606 143.599 4.69143 144.926 4.44919L144.746 3.46545C146.071 3.22362 147.401 2.99408 148.736 2.77697L148.897 3.76401C150.221 3.54871 151.55 3.34569 152.884 3.15511L152.743 2.16516C154.078 1.97446 155.417 1.79614 156.762 1.63036L156.884 2.62284C158.214 2.45887 159.549 2.30722 160.887 2.16802L160.784 1.17339C162.127 1.03372 163.475 0.906525 164.828 0.791954L164.912 1.78838C166.245 1.67543 167.583 1.5748 168.924 1.48662L168.858 0.488776C170.206 0.400187 171.558 0.324115 172.914 0.260693L172.96 1.2596C174.297 1.19706 175.638 1.14688 176.983 1.10919L176.955 0.10958C178.303 0.0717893 179.654 0.0464973 181.01 0.033835L181.019 1.03379C181.693 1.02749 182.369 1.02433 183.045 1.02433C183.721 1.02433 184.397 1.02749 185.071 1.03379L185.081 0.0338366C186.436 0.0464999 187.788 0.0717927 189.136 0.109584L189.108 1.10919C190.452 1.14688 191.793 1.19707 193.13 1.25961L193.176 0.2607C194.532 0.324122 195.884 0.400196 197.232 0.488785L197.166 1.48663C198.508 1.57481 199.845 1.67544 201.178 1.7884L201.263 0.791967C202.615 0.906539 203.963 1.03373 205.306 1.1734L205.203 2.16804C206.542 2.30724 207.876 2.45889 209.206 2.62286L209.328 1.63037C210.673 1.79616 212.012 1.97447 213.347 2.16518L213.206 3.15513C214.54 3.34571 215.869 3.54873 217.193 3.76403L217.354 2.77699C218.689 2.9941 220.019 3.22364 221.344 3.46547L221.164 4.44921C222.491 4.69145 223.813 4.94609 225.129 5.21296L225.328 4.2329C226.652 4.50139 227.97 4.78221 229.283 5.07522L229.065 6.0512C230.383 6.34529 231.695 6.6517 233 6.97029L233.237 5.99879C234.55 6.31894 235.856 6.65132 237.156 6.9958L236.9 7.96244C238.205 8.30822 239.503 8.66623 240.796 9.03632L241.071 8.07497C242.37 8.44717 243.664 8.83154 244.95 9.2279L244.656 10.1836C245.944 10.5807 247.226 10.9898 248.501 11.4109L248.815 10.4614C250.1 10.8857 251.377 11.322 252.648 11.7702L252.315 12.7132C253.585 13.1615 254.849 13.6217 256.104 14.0938L256.456 13.1577C257.723 13.6339 258.983 14.1221 260.235 14.6221L259.864 15.5508C261.114 16.0501 262.357 16.5612 263.591 17.084L263.981 16.1631C265.228 16.6912 266.468 17.2311 267.699 17.7827L267.29 18.6953C268.517 19.2454 269.737 19.8072 270.948 20.3804L271.376 19.4766C272.6 20.0563 273.817 20.6477 275.024 21.2506L274.577 22.1453C275.78 22.746 276.974 23.3581 278.16 23.9816L278.625 23.0966C279.825 23.7277 281.015 24.3702 282.196 25.0242L281.712 25.899C282.888 26.55 284.054 27.2123 285.211 27.8856L285.714 27.0214C286.886 27.7034 288.048 28.3968 289.2 29.1013L288.679 29.9545C289.825 30.6554 290.961 31.3673 292.087 32.0902L292.628 31.2486C293.769 31.9812 294.9 32.7249 296.02 33.4796L295.462 34.309C296.576 35.0595 297.68 35.821 298.773 36.5931L299.35 35.7763C300.457 36.5586 301.554 37.3518 302.639 38.1558L302.044 38.9594C303.124 39.7591 304.192 40.5695 305.249 41.3904L305.863 40.6005C306.933 41.4318 307.993 42.2738 309.04 43.1264L308.409 43.9019C309.451 44.7501 310.481 45.6088 311.499 46.4776L312.148 45.7169C313.179 46.5965 314.198 47.4866 315.205 48.3869L314.538 49.1322C315.539 50.028 316.528 50.9339 317.504 51.8499L318.189 51.1206C319.177 52.0476 320.152 52.9849 321.114 53.9321L320.413 54.6447C321.37 55.5871 322.315 56.5394 323.246 57.5014L323.964 56.8059C324.906 57.7793 325.835 58.7626 326.75 59.7556L326.015 60.4333C326.925 61.421 327.821 62.4183 328.704 63.4251L329.456 62.7659C330.348 63.7844 331.227 64.8126 332.091 65.8501L331.323 66.4902C332.183 67.5218 333.028 68.5628 333.858 69.6129L334.643 68.9926C335.483 70.0547 336.308 71.1261 337.118 72.2065L336.318 72.8065C337.123 73.8805 337.914 74.9634 338.689 76.0552L339.504 75.4763C340.288 76.5801 341.056 77.6929 341.809 78.8145L340.979 79.3717C341.726 80.4861 342.459 81.6092 343.175 82.7406L344.02 82.2057C344.744 83.3492 345.452 84.5011 346.143 85.6615L345.284 86.1734C345.971 87.3262 346.642 88.4873 347.296 89.6563L348.169 89.168C348.829 90.3484 349.473 91.5368 350.1 92.7333L349.214 93.1973C349.836 94.3859 350.442 95.5823 351.031 96.7863L351.929 96.3471C352.523 97.5615 353.099 98.7836 353.658 100.013L352.748 100.427C353.303 101.648 353.84 102.877 354.36 104.113L355.282 103.725C355.806 104.97 356.312 106.223 356.8 107.483L355.867 107.844C356.351 109.094 356.818 110.352 357.266 111.616L358.208 111.282C358.659 112.555 359.092 113.834 359.506 115.12L358.554 115.427C358.965 116.703 359.357 117.985 359.731 119.274L360.691 118.996C361.067 120.292 361.424 121.594 361.762 122.903L360.794 123.153C361.129 124.45 361.445 125.754 361.742 127.063L362.717 126.841C363.016 128.157 363.295 129.478 363.555 130.805L362.573 130.997C362.831 132.312 363.069 133.631 363.287 134.956L364.274 134.793C364.494 136.124 364.694 137.459 364.874 138.8L363.883 138.934C364.062 140.26 364.221 141.591 364.36 142.927L365.355 142.824C365.495 144.164 365.615 145.509 365.715 146.86L364.718 146.934C364.817 148.267 364.896 149.606 364.956 150.948L365.955 150.904Z" stroke="black" stroke-width="2" stroke-dasharray="4 4"/>
</svg>
