<svg width="28" height="28" viewBox="0 0 28 28" fill="none" xmlns="http://www.w3.org/2000/svg">
<g clip-path="url(#clip0_306_242)">
<path d="M27.1498 10.989C25.3403 8.04199 21.2243 3.09766 14.0003 3.09766C6.7763 3.09766 2.6603 8.04199 0.850804 10.989C0.29142 11.8937 -0.00488281 12.9364 -0.00488281 14.0002C-0.00488281 15.0639 0.29142 16.1066 0.850804 17.0113C2.6603 19.9583 6.7763 24.9027 14.0003 24.9027C21.2243 24.9027 25.3403 19.9583 27.1498 17.0113C27.7092 16.1066 28.0055 15.0639 28.0055 14.0002C28.0055 12.9364 27.7092 11.8937 27.1498 10.989ZM25.1606 15.7898C23.6066 18.3168 20.0891 22.5693 14.0003 22.5693C7.91147 22.5693 4.39397 18.3168 2.83997 15.7898C2.50763 15.252 2.3316 14.6323 2.3316 14.0002C2.3316 13.368 2.50763 12.7483 2.83997 12.2105C4.39397 9.68349 7.91147 5.43099 14.0003 5.43099C20.0891 5.43099 23.6066 9.67882 25.1606 12.2105C25.493 12.7483 25.669 13.368 25.669 14.0002C25.669 14.6323 25.493 15.252 25.1606 15.7898Z" fill="#0A75BF"/>
<path d="M14.0003 8.16675C12.8466 8.16675 11.7188 8.50887 10.7595 9.14984C9.80022 9.79082 9.05254 10.7019 8.61103 11.7678C8.16952 12.8337 8.054 14.0066 8.27908 15.1381C8.50416 16.2697 9.05973 17.3091 9.87554 18.1249C10.6913 18.9407 11.7307 19.4962 12.8623 19.7213C13.9939 19.9464 15.1667 19.8309 16.2327 19.3894C17.2986 18.9479 18.2096 18.2002 18.8506 17.2409C19.4915 16.2816 19.8337 15.1538 19.8337 14.0001C19.8318 12.4536 19.2166 10.9709 18.1231 9.87734C17.0295 8.78378 15.5469 8.1686 14.0003 8.16675ZM14.0003 17.5001C13.3081 17.5001 12.6314 17.2948 12.0558 16.9102C11.4803 16.5256 11.0317 15.979 10.7668 15.3395C10.5018 14.6999 10.4325 13.9962 10.5676 13.3173C10.7026 12.6383 11.036 12.0147 11.5255 11.5252C12.0149 11.0357 12.6386 10.7024 13.3175 10.5673C13.9964 10.4323 14.7002 10.5016 15.3397 10.7665C15.9793 11.0314 16.5259 11.48 16.9105 12.0556C17.2951 12.6312 17.5003 13.3078 17.5003 14.0001C17.5003 14.9283 17.1316 15.8186 16.4752 16.475C15.8188 17.1313 14.9286 17.5001 14.0003 17.5001Z" fill="#0A75BF"/>
</g>
<defs>
<clipPath id="clip0_306_242">
<rect width="28" height="28" fill="white"/>
</clipPath>
</defs>
</svg>
